<svg xmlns="http://www.w3.org/2000/svg" viewBox="0 0 786 786"><path d="M49 17.9c-16.4 5.3-27.4 16.6-31.6 32.6-2 7.2-2 105.8 0 113 4.6 17.2 18.4 30.2 35.5 33.5 7.6 1.4 102.4 1.3 109.3-.1 16.4-3.5 30-16.7 34.4-33.4 1.8-6.6 2-103.6.3-111.7-3.5-16.3-16.8-30-33.4-34.4-3.9-1.1-16.6-1.4-57-1.3-47 0-52.5.2-57.5 1.8m97.3 25.6c10.3 2.7 17.7 8.9 22.4 19l2.8 6v78l-2.8 5.7c-3.4 6.7-10.2 13.4-17.2 16.8l-5 2.5h-79l-5.5-2.8c-9.3-4.8-15.1-11.4-18.3-21.1-1.5-4.2-1.7-9.9-1.7-39.2 0-21.3.4-36.3 1.1-39.6 2.5-12 12.6-22.5 24.4-25.4 7.8-1.9 71.3-1.9 78.8.1"/><path d="M86 68.9c-7.4 2.3-12.7 6.9-15.9 14.1-1.8 4-2.1 6.5-2.1 24.3 0 18.9.1 20 2.4 24.5 3 5.8 6.8 9.5 12.6 12.1 4 1.8 6.5 2.1 24.3 2.1 19 0 20-.1 24.6-2.4 5.8-3 10.3-7.9 12.6-13.8 1.4-3.8 1.6-7.5 1.3-24.4-.3-18.3-.5-20.2-2.5-24-3-5.6-9.4-10.9-14.8-12.3-4.9-1.2-38.6-1.4-42.5-.2m169.5-51.7c-4 2.2-5.5 5.1-5.5 11 0 12.7 2.1 13.8 26 13.8s26-1.1 26-13.8c0-6-1.5-9-5.7-11.1-2.9-1.5-38.1-1.4-40.8.1"/><path d="M333.1 17.4c-4.5 2.5-5 4.9-5.1 24.3 0 10 .4 19.3 1 20.8 1.7 4.6 6 5.5 25.4 5.5 9.6 0 18.6.4 20 1 3.6 1.3 5.6 5.9 5.6 12.7 0 4.6.5 6.4 2.4 8.7 2 2.6 3 3 8.7 3.3 11.4.7 14.9 3.7 14.9 12.6 0 9.9-3.8 13.7-13.5 13.7-8.8 0-12.5 3.9-12.5 13.1 0 9-3.9 12.9-13 12.9s-13-3.9-13-13c0-8.9 3.9-13 12.5-13 6.5 0 9.7-1.2 11.6-4.4 2.3-3.8 2.5-12.5.5-16.5-2.4-4.5-5.2-5.1-24-5.1-10.1 0-18.6-.5-20.5-1.1-4-1.4-6.1-5.4-6.1-11.8 0-12.3-2.1-13.3-27.5-12.9-18.7.3-19.5.4-21.7 2.6-1.8 1.8-2.3 3.6-2.6 9.6-.5 9.4-2.6 12.3-9.4 13.2-6.5.9-11.6-.3-14.4-3.3-2-2.1-2.4-3.7-2.4-8.5 0-10.2-3.5-13.8-13.1-13.8-6 0-10.6 2.2-11.9 5.6-.6 1.5-1 30.4-1 72.5 0 76-.1 74.2 5.5 76.7 2.8 1.3 33.7 1.7 39.5.6 4.4-.9 7-5.4 7-12.2 0-9.3-3.7-13.2-12.4-13.2-5.8 0-10.1-1.6-12-4.5-1.4-2.1-1.6-7-1.6-34 0-35 .2-36.3 6.1-38.4 5.1-1.8 63.2-1.5 66.8.3 4.9 2.6 5.1 4.3 5.1 37.7 0 34.8.2 35.8 6.6 37.9 2 .7 6.1 1 9.2.8 7.5-.7 10.2-3.8 10.2-12 0-6.9 1.5-10.5 5.1-12.4 3.2-1.6 11.6-1.9 15.3-.4 5.3 2 5.6 4.2 5.6 38 0 26.1.2 31.6 1.5 34.1 1.9 3.6 5 4.9 11.6 4.9 9.2 0 12.8 3.5 12.9 12.3 0 6.2-1.8 11-4.7 12.2-1 .4-5.1 1.1-9.1 1.5-10 1-11.6 2.6-12 12.3-.3 6.4 0 7.5 2.1 10.2l2.5 3 18.4.3c11.5.2 19.7-.1 22-.8 4.7-1.4 6.8-5.1 6.8-12 0-9.1 3.7-13 12.4-13 10 0 13.6-3.7 13.6-13.7-.1-8.6-3.7-12.3-12.3-12.3-9.8 0-13.7-3.7-13.7-13 0-9.2-3.7-13-12.6-13-6.5 0-10.9-2.1-12.3-6-1.7-5.1-1.5-37.4.4-40.9 1.7-3.3 5.9-5.1 12.1-5.1 8.7 0 12.4-3.9 12.4-13 0-9.3 3.9-13 13.7-13 8.6 0 12.3-3.9 12.3-13.1 0-9-3.8-12.9-12.4-12.9-9.7 0-13.6-3.7-13.6-13 0-5.6 1.9-10.4 4.7-11.5 1-.4 5.2-1.1 9.3-1.5 6.5-.7 7.7-1.1 9.7-3.6 1.8-2.3 2.3-4.2 2.3-8.7 0-9.8-3.5-13.7-12.4-13.7-9.9 0-13.6-3.7-13.6-13.7-.1-8.6-3.7-12.3-12.3-12.3-10 0-13.7-3.6-13.7-13.7-.1-8.8-3.7-12.3-13-12.3s-13 3.7-13 13.1c0 9-3.9 12.9-13 12.9s-13-3.9-13-12.9c0-6.2-1.6-9.8-5.1-11.7-3.5-1.8-12.6-1.8-15.8 0m130.4-.2c-4 2.2-5.5 5.1-5.5 11 0 6.9 1.5 10.5 5.1 12.4 3.2 1.6 11.6 1.9 15.3.4 3.4-1.3 5.6-5.9 5.6-11.9 0-6.2-1.6-9.8-5.1-11.7-3.3-1.7-12.5-1.8-15.4-.2m51.6.2c-3.5 1.9-5 5.4-5.1 11.3 0 9.3 3.6 13.3 12.3 13.3 9.8 0 13.7-3.7 13.7-12.9 0-6.2-1.6-9.8-5.1-11.7-3.5-1.8-12.6-1.8-15.8 0m105.9.5c-8.5 2.7-13.4 5.6-19.3 11.4-6.1 5.9-10.9 14.5-12.6 22.5-1.7 8.1-1.5 105.1.3 111.7 4.6 17.2 18.4 30.2 35.5 33.5 3.2.6 25.4 1 55 1 54.7 0 55.9-.1 67.3-6.2 9.9-5.3 18.2-16.2 21.4-28.3 1.8-6.6 2-103.6.3-111.7-3.4-15.7-15.6-28.9-31.6-33.8-6.2-1.9-9.2-2-58.7-1.9-47.1 0-52.6.2-57.6 1.8m102.5 27c5.9 3 11.9 8.2 15.2 13.4 5 7.9 5.4 12.6 5.1 51.9l-.3 36.3-3.2 6c-3.6 7.1-9.8 13.1-16.8 16.5l-5 2.5h-79l-5.5-2.9c-9.7-5-16.1-12.6-18.6-22.1-2.1-7.6-2-70.9.1-78.8 2.3-8.8 7.2-15.4 15-20.5 7.4-4.8 11.1-5.1 51-4.9l37 .2z"/><path d="M658 68.9c-7.5 2.4-12.7 7-15.9 14.1-1.8 4-2.1 6.5-2.1 24 0 18.4.1 19.8 2.4 24.5 2.8 6 6.6 9.7 12.6 12.4 4 1.8 6.5 2.1 24 2.1 18.3 0 19.8-.2 24.5-2.4 6-2.7 10.6-7.7 13-13.8 1.4-3.8 1.6-7.5 1.3-24.4-.3-18.1-.5-20.3-2.5-23.9-2.5-4.7-6.4-8.5-11.3-11.1-3-1.7-6.2-1.9-23.5-2.1-11-.1-21.1.2-22.5.6M489.4 43c-4 1.6-5.6 5.7-5.2 13.1.5 9.2 2.3 11.1 11.1 11.7 7.4.5 12.2-1.4 13.7-5.4.6-1.4 1-5.2 1-8.4 0-5.2-.3-6.2-3.1-8.9-2.8-2.8-3.6-3.1-9.2-3-3.4 0-7.1.4-8.3.9m51.3 26.6c-3.4 1.9-4.7 5-4.7 11.5 0 9.8 4.7 13.6 15.8 12.7 7.5-.7 10.2-3.8 10.2-12 0-6.9-1.5-10.5-5.1-12.4-3.6-1.8-12.6-1.7-16.2.2m-79.6 27.5c-2.8 2.7-3.1 3.7-3.1 8.9 0 7.1 1.5 10.7 5.1 12.6 3.3 1.7 37.1 2 41.3.4 3.6-1.3 5.6-5.9 5.6-12.9 0-5.3-.3-6.3-3.1-9l-3.1-3.1h-39.6zm80 24.3c-5 2.8-5 3-5.1 50.4 0 38.1.2 44.7 1.5 47.3 1.9 3.6 5 4.9 11.5 4.9s9.6-1.3 11.5-4.9c1.3-2.6 1.5-9.2 1.5-47 0-47.3-.1-48.1-5.1-50.7-3.5-1.8-12.6-1.8-15.8 0M281.4 147c-4.8 1.9-5.4 4.6-5.4 25.2 0 18.7.1 19.4 2.3 22.2 2 2.4 3.3 3 8 3.4 7.2.6 10.3-.2 13.3-3.5 2.4-2.6 2.4-2.8 2.4-22.4v-19.7l-3.1-3.1c-2.8-2.8-3.6-3.1-9.2-3-3.4 0-7.1.4-8.3.9m179.7 2.1c-2.8 2.7-3.1 3.7-3.1 8.9 0 3.2.4 7 1 8.4 1.3 3.4 5.9 5.6 11.9 5.6 9.8 0 13.1 3.4 13.1 13.7 0 8.3 2.6 11.4 10.3 12.1 7.2.6 10.3-.2 13.3-3.5 2.4-2.6 2.4-2.8 2.4-22.4v-19.7l-3.1-3.1-3.1-3.1h-39.6zm-24.4 24.5c-1.5.8-3.2 2.6-3.7 4-1.6 4.2-1.3 38 .4 41.3 1.9 3.5 5.5 5.1 11.6 5.1 11.9 0 13-2.2 13-25.9 0-19.6-.6-22.3-5.1-24.7-3.6-1.8-12.6-1.7-16.2.2M21.1 225.4c-4.5 2.5-5 4.9-5.1 24.3 0 10 .4 19.3 1 20.8 1.8 4.7 11.5 7 18.9 4.4 5.4-1.9 6.1-4.6 6.1-24.8 0-19.6-.6-22.3-5.1-24.7-3.5-1.8-12.6-1.8-15.8 0m52 0c-4.9 2.7-5 3.9-5.1 38.1v32l2.3 2.9c2 2.4 3.3 3 8 3.4 7.2.6 10.3-.2 13.3-3.5 2.4-2.6 2.4-2.9 2.4-22.2.1-27-.8-26.1 26.2-26.1 15.7 0 18.7.3 20.8 1.7 4.1 2.8 4.9 4.5 5 10.5 0 3.1.4 6.8 1 8.2 1.5 4 6.3 5.9 13.7 5.4 8.7-.6 10.6-2.5 11.1-11.5.2-3.8.8-7.9 1.5-9.1 1.6-3.3 5.8-5.2 11.6-5.2 9.6 0 13.1-3.7 13.1-13.7 0-6.1-1.5-9.1-5.7-11.2-3.4-1.7-116-1.5-119.2.3m260 0c-3.5 1.9-5 5.4-5.1 11.4 0 5.8-1.9 10.5-4.7 11.8-1 .4-11 1.1-22.1 1.4l-20.4.5-2.3 2.9c-1.8 2.3-2.4 4.4-2.7 10-.5 10-2.2 11.7-12.2 12.4-10.7.7-12.7 2.5-13.5 12.3-1.2 13.3-2.3 13.9-26.7 13.9-11.3 0-18.2.4-19.9 1.2-3.5 1.6-5.5 5.7-5.5 11.1 0 9.6-3.8 13.7-12.8 13.7-9.3 0-13.2-3.8-13.2-13 0-9.6-3.7-13-14-13-5.2 0-6.2.3-8.9 3.1-2.7 2.7-3.1 3.8-3.1 8.5 0 10.7-3.6 14.4-13.7 14.4-5.4 0-9.5 2-11.1 5.5-.8 1.7-1.2 8.8-1.2 20.6 0 18.9-.7 22.6-4.7 24.5-1 .4-10.9 1.1-22 1.4-19.3.5-20.4.6-22.5 2.8-1.8 1.8-2.3 3.5-2.6 9.5-.3 6.4 0 7.5 2.1 10.2l2.5 3 20.4.5c11.1.3 21.1 1 22.1 1.4 2.8 1.3 4.7 6 4.7 11.6 0 9.3 3.7 13 13.1 13 9.2 0 12.9 3.9 12.9 13.7 0 8.6-4.1 12.3-13.7 12.3-8.5 0-12.2 3.7-12.3 12.2 0 13 2.1 14 28.1 13.6 18-.3 19-.4 21.1-2.5 1.7-1.8 2.3-3.7 2.6-9 .7-13.5 2.2-14.3 25.5-14.3 19.2 0 23-.8 25.2-5.1 1.9-3.6 1.9-12.2.1-15.8-2.4-4.5-5.2-5.1-24-5.1-10.1 0-18.6-.5-20.5-1.1-4-1.4-6.1-5.4-6.1-11.9 0-9.1-3.7-13-12.4-13-9.8 0-13.6-3.5-13.6-12.5 0-10.2 3.1-13 14.8-13.8 8.7-.5 10.5-2.4 11-11.4.2-3.8.8-7.9 1.5-9.1 1.6-3.4 5.8-5.2 11.7-5.2 9.3 0 12.9 3.5 13 12.3 0 7.2 1.9 11.1 6.1 12.6 4.2 1.4 11.1 1.4 14.4-.1 4.9-2.2 5.5-5.1 5.5-24.8s.6-22.6 5.5-24.8c3.6-1.7 12-1.5 15.4.3 4.3 2.2 5.1 6 5.1 25.2 0 19.5-.7 22.3-6.1 24.2-1.8.6-5.2 1.1-7.6 1.1-5.4 0-10.1 2.3-11.3 5.6-1.5 3.8-1.2 12.1.5 15.3 2.2 4.3 6 5.1 25.1 5.1 11.3 0 18.2.4 19.9 1.2 4.9 2.2 5.5 5.1 5.5 24.8 0 19.8.8 23.2 5.6 25 3.5 1.4 11.8 1.2 14.9-.2 5.5-2.5 5.5-2.9 5.5-51.7v-44.9l-3.1-3.1c-2.6-2.7-3.8-3.1-8.3-3.1-10.7 0-14.6-3.4-14.6-12.9 0-9.4 3.7-13.1 12.9-13.1 12 0 13.1-2.1 13.1-26 0-20.3.7-23 6.1-24.9 1.9-.6 10.3-1.1 19.9-1.1s18-.5 19.9-1.1c5.4-1.9 6.1-4.6 6.1-24.8 0-19.6-.6-22.3-5.1-24.7-3.5-1.8-12.6-1.8-15.8 0m130.4-.2c-4 2.2-5.5 5.1-5.5 11 0 6.9 1.5 10.5 5.1 12.4 3.2 1.6 11.6 1.9 15.3.4 3.4-1.3 5.6-5.9 5.6-11.9 0-6.2-1.6-9.8-5.1-11.7-3.3-1.7-12.5-1.8-15.4-.2m129.4.3c-4.5 2.4-5.1 5.5-4.7 26.3.3 18.3.4 19.3 2.5 21.4 3 3 13.5 3.8 18.2 1.4 3.9-2.1 5.1-5 5.1-12.4.1-8.5 3.8-12.2 12.3-12.2 9.8 0 13.7 3.7 13.7 13s-3.9 13-13.6 13c-8.9 0-12.4 3.9-12.4 13.7.1 8.6 3.7 12.3 12.3 12.3 9.8 0 13.7 3.7 13.7 13 0 9.5 3.5 13 13 13s13-3.5 13-13c0-9.7 3.2-12.5 14.9-13.3 5.6-.3 6.7-.7 8.8-3.3s2.4-3.7 2.1-10.1c-.4-9.7-2-11.3-12-12.3-9.1-1-10.5-1.5-12.3-5.1-2.1-4-1.9-13.8.3-16.5 3.2-4 5.4-4.4 24.1-4.4 11.8 0 18.9-.4 20.6-1.2 3.7-1.7 5.5-5.8 5.5-12.5 0-6.1-1.5-9.1-5.7-11.2-1.5-.8-19.2-1.1-59.5-1.1-47.5.1-57.7.3-59.9 1.5"/><path d="M229.5 251.2c-4 2.2-5.5 5.1-5.5 11 0 3.1.4 6.8 1 8.3 1.8 4.7 11.5 7 18.9 4.4 4.2-1.5 6.1-5.5 6.1-12.6 0-6.1-1.5-9.1-5.7-11.2-2.8-1.4-12.2-1.4-14.8.1m259.9-.2c-4 1.6-5.6 5.7-5.2 13.1.3 5.5.8 7.4 2.6 9.2 2.1 2.1 3.2 2.2 22.5 2.7 11.1.3 21 .9 22 1.4 2.8 1.3 4.7 6 4.7 11.6 0 9.3 3.9 13 13.6 13 8.5 0 12.4 3.9 12.4 12.5 0 9.7-3.8 13.5-13.7 13.5-8.6 0-12.3 3.9-12.3 13.1 0 6.4 2.1 10.4 6.1 11.8 3.9 1.4 36.8 1.5 40.3.1 5.4-2 5.7-4.1 5.4-39.5-.4-38.4.3-36.2-12-37.5-4-.4-8.1-1.1-9.1-1.5-2.8-1.2-4.7-6-4.7-12.2 0-6.1-1.5-9.1-5.7-11.2-2.6-1.3-63.6-1.5-66.9-.1m260.1.2c-4 2.2-5.5 5.1-5.5 11 0 3.1.4 6.8 1 8.3 1.8 4.7 11.5 7 18.9 4.4 4.2-1.5 6.1-5.5 6.1-12.6 0-6.1-1.5-9.1-5.7-11.2-2.8-1.4-12.2-1.4-14.8.1M177 277.3c-3.5 1.8-5 5.3-5 12.2 0 4.8.5 6.6 2.4 8.9 2 2.6 3.1 3 8.4 3.4 11.7.8 15.7-2.8 15-14.1-.3-6.3-.7-7.2-3.3-9.3-2.4-1.9-4.2-2.4-9-2.4-3.3 0-7.1.6-8.5 1.3m284.5 1c-2.6 2.2-3 3.1-3.3 9.4-.7 11.3 3.3 14.9 15 14.1 5.3-.4 6.4-.8 8.5-3.4s2.4-3.7 2.1-10.1c-.3-5.9-.8-7.7-2.6-9.5s-3.6-2.3-9.5-2.6c-6.4-.3-7.5 0-10.2 2.1m261.6-.9c-3.6 2-5 5.4-5 12.1-.1 8.8 3.6 12.5 12.2 12.5 9.8 0 13.7-3.7 13.7-12.9 0-6.6-1.3-9.7-4.9-11.6-3.6-1.8-12.7-1.9-16-.1m-624 26c-3.5 1.9-5 5.4-5.1 11.4 0 9.7 3.4 13.2 13 13.2 9.4 0 13-3.5 13-12.9 0-7-1.4-9.9-5.5-11.6-4.3-1.8-12.2-1.9-15.4-.1"/><path d="M489.1 303.4c-3.5 1.9-5 5.4-5.1 11.6 0 7 2.5 11.4 7 12.4 5.1 1 36.6.7 39.4-.4 3.4-1.3 5.6-5.9 5.6-11.9 0-12-2.3-13.1-26.7-13.1-12.9.1-18.5.4-20.2 1.4m260.1.1c-3.8 1.7-5.2 4.8-5.2 11.5 0 9.3 3.7 13 12.9 13 6.6 0 9.7-1.3 11.6-4.9 1.8-3.6 2-11.9.3-15.6-.7-1.5-2.4-3.3-3.9-4.1-3.5-1.8-11.4-1.7-15.7.1M21.1 329.4c-3.5 1.9-5 5.4-5.1 11.4 0 9.5 3.8 13.2 13.7 13.2 8.6 0 12.3-3.9 12.3-13 0-6.1-1.6-9.7-5.1-11.6-3.5-1.8-12.6-1.8-15.8 0m650.4-.2c-4 2.2-5.5 5.1-5.5 11.1 0 6.2-1.8 10.9-4.7 12.3-1 .5-16.8 1.1-35.1 1.4l-33.4.5-2.5 3c-2.1 2.7-2.4 3.8-2.1 10.2.3 6 .8 7.7 2.6 9.5 2.2 2.3 2.6 2.3 35.5 2.8 35.5.5 36.3.6 38.6 5.7.6 1.3 1.1 5 1.1 8.2 0 9.5 4.4 12.8 15.7 11.9 4.7-.4 6-1 8-3.4 2.2-2.8 2.3-3.5 2.3-22.4 0-17 .3-19.8 1.8-21.6 2.6-3.2 5.5-4.4 11.2-4.4 9.6 0 13-3.7 13-13.8 0-6-1.5-9-5.7-11.1-2.9-1.5-38.1-1.4-40.8.1M354 338.6c-14 4.6-26.1 8.4-26.7 8.4-2 0-1.8 44.7.2 52.5 4.3 16.6 16.9 33.3 34.5 45.7 7 4.9 18.1 10.8 20.3 10.8 2.3 0 14.8-6.9 23.1-12.9 9.2-6.5 15.5-13.2 22.4-23.6 9.4-13.9 9.7-15.1 10-45.5l.3-26.5-27.3-8.8c-15-4.8-28.2-8.7-29.3-8.6-1.1 0-13.5 3.9-27.5 8.5M489.4 355c-4 1.6-5.6 5.7-5.2 13.1.3 5.5.8 7.4 2.6 9.2 2.2 2.1 3.1 2.2 21.4 2.5 21 .4 23.9-.2 26.3-4.9.8-1.5 1.5-5.4 1.5-8.6 0-6.1-1.5-9.1-5.7-11.2-2.6-1.3-37.7-1.4-40.9-.1m260.1.2c-4 2.2-5.5 5.1-5.5 11 0 3.1.4 6.8 1 8.3 1.8 4.7 11.5 7 18.9 4.4 4.2-1.5 6.1-5.5 6.1-12.6 0-6.1-1.5-9.1-5.7-11.2-2.8-1.4-12.2-1.4-14.8.1M177 381.3c-3.5 1.8-5 5.3-5 12.2 0 4.8.5 6.6 2.4 8.9 2 2.6 3.1 3 8.4 3.4 11.7.8 15.7-2.8 15-14.1-.3-6.3-.7-7.2-3.3-9.3-2.4-1.9-4.2-2.4-9-2.4-3.3 0-7.1.6-8.5 1.3m363.7.3c-3.4 1.9-4.7 5-4.7 11.5 0 9.2-3.9 12.9-13.7 12.9-8.6 0-12.3 3.9-12.3 13.1 0 9.4 3.5 12.9 13 12.9 9.3 0 13 3.7 13 13s3.9 13 13.6 13c8.7 0 12.4-3.9 12.4-13 0-6.5 2.1-10.5 6.1-11.9 2.2-.7 17.4-1.1 46.5-1.1 25.1 0 44.3-.4 45.8-1 7-2.6 7.7-20.3.9-23.6-1-.5-16.8-1.1-35.1-1.4l-33.4-.5-2.3-2.9c-1.8-2.3-2.4-4.4-2.7-10.2-.3-6-.8-7.8-2.6-9.6-2.2-2.2-3-2.3-22-2.5-16.2-.2-20.2 0-22.5 1.3"/><path d="M723.1 381.4c-4.5 2.5-5 4.9-5.1 23.7 0 10.5-.5 18.9-1.1 20.9-1.9 5.2-5.2 6-25.4 6-11 0-18.5.4-19.8 1.1-4.2 2.1-5.7 5.1-5.7 11.2 0 7.2-1.9 11.1-6.1 12.6-1.9.6-10.4 1.1-20.6 1.1-10.9 0-18.3.4-19.6 1.1-4.2 2.1-5.7 5.1-5.7 11.2 0 10 3.6 13.7 13.7 13.7 8.6 0 12.3 3.9 12.3 13.1 0 6.4-2.1 10.4-6.1 11.8-2.1.7-14.2 1.1-34.5 1.1h-31.2l-3.1 3.1c-2.7 2.7-3.1 3.8-3.1 8.5 0 7.5-2 11.8-6 13.3-2 .6-10.3 1.1-20.7 1.1-19 0-21.9.7-24.1 5.5-.7 1.4-1.2 4.9-1.2 7.6 0 5.3-2.2 10.3-4.9 11.5-.9.3-5 1-9.1 1.4-6.5.7-7.7 1.1-9.8 3.6-2 2.6-2.3 3.7-2 10.1.4 9.6 2.2 11.5 11 12 11.8.8 14.8 3.6 14.8 14 .1 8.6 3.7 12.3 12.3 12.3 2.4 0 5.8.5 7.6 1.1 5.4 1.9 6.1 4.6 6.1 24.9s.7 23 6.1 24.9c1.8.6 5.3 1.1 7.8 1.1 8.1 0 12 4 12.1 12.2 0 3.1.4 6.8 1 8.2 1.5 4 6.3 5.9 13.7 5.4 8.7-.6 10.6-2.5 11.1-11.5.2-3.8.8-7.9 1.5-9.1 1.6-3.4 5.8-5.2 11.7-5.2 9.3 0 12.9 3.5 13 12.3 0 10 3.7 13.7 13.6 13.7 8.7 0 12.4-3.9 12.4-13 0-9.3 3.9-13 13.6-13 8.7 0 12.4-3.9 12.4-13 0-8.9 3.9-13 12.5-13 9.8 0 13.5-3.5 13.5-12.8s-3.7-13.2-12.4-13.2c-9.8 0-13.6-3.5-13.6-12.5 0-10.2 3.1-13 14.8-13.8 8.8-.5 10.6-2.4 11-12 .3-6.4 0-7.5-2-10.1-2.1-2.5-3.3-2.9-9.8-3.6-9.3-1-10.7-1.5-12.5-5.1-1.9-3.6-1.9-12.2 0-15.8 1.6-3.1 5.9-5.1 11-5.1 9.8 0 13.5-3.5 13.5-12.7 0-9.4-3.6-13.3-12.3-13.3-9.9 0-13.7-3.5-13.7-12.5 0-10.2 3.1-13 14.8-13.8 8.7-.5 10.5-2.4 11-11.4.7-13.5 2.2-14.3 25.5-14.3 10.2 0 18.7.5 20.6 1.1 4 1.4 6.1 5.4 6.1 11.8 0 7 1.4 9.9 5.5 11.6 7.1 3 16.5 1.3 19-3.6 2.1-4 2.2-37.7.1-41.8-1.8-3.4-5.4-5.1-11-5.1-2.4 0-5.7-.5-7.5-1.1-5.4-1.9-6.1-4.6-6.1-24.8 0-9.9-.4-19.1-1-20.5-.5-1.4-2.3-3.2-3.9-4.1-3.6-1.8-12.7-1.9-16-.1m-89.2 181.7c5.9 2.1 6.1 3.5 6.1 37.9s-.2 35.8-6.1 37.9c-4.4 1.5-61.4 1.5-65.9 0-5.7-2-6-4.1-6-39.1 0-33.8 0-33.6 5.5-36.6 2.8-1.6 62-1.6 66.4-.1"/><path d="M593 589.3c-3.5 1.8-5 5.3-5 12.2 0 4.8.5 6.6 2.4 8.9 2 2.6 3.1 3 8.4 3.4 11.7.8 15.7-2.8 15-14.1-.3-6.3-.7-7.2-3.3-9.3-2.4-1.9-4.2-2.4-9-2.4-3.3 0-7.1.6-8.5 1.3M21.2 407.5c-3.8 1.7-5.2 4.8-5.2 11.5 0 9.3 3.7 13 13 13s13 3.9 13 13.7c0 8.6-4.1 12.3-13.7 12.3-5 0-8 1.2-10.5 4.4-1.6 1.9-1.8 6-1.8 46.9 0 49.4 0 49.5 6.1 51.6 4.4 1.5 11.5 1.4 14.8-.3 4.9-2.6 5.1-4.3 5.1-37.7 0-33.6.2-35.3 5.5-37.7 3.1-1.4 11.4-1.6 14.9-.2 3.6 1.3 5.6 5.9 5.6 12.7 0 8.3 2.6 11.4 10.3 12.1 7.2.6 10.3-.2 13.3-3.5 2.4-2.6 2.4-2.8 2.4-22.4v-19.7l-3.1-3.1c-2.6-2.7-3.8-3.1-8.3-3.1-2.9 0-6.7-.5-8.5-1.1-5.4-1.9-6.1-4.6-6.1-24.9 0-19.7-.6-22.6-5.5-24.8-3.9-1.8-37-1.6-41.3.3m467.9 25.9c-3.5 1.9-5 5.4-5.1 11.4 0 9.7 3.4 13.2 13.1 13.2 9.5 0 12.9-3.7 12.9-13.8 0-6-1.5-9-5.7-11.1-3-1.5-12.3-1.3-15.2.3m-259.6 25.8c-4 2.2-5.5 5.1-5.5 11.1 0 6.2-1.8 10.9-4.7 12.3-1 .4-10.9 1.1-22 1.4-19.3.5-20.4.6-22.5 2.8-1.8 1.8-2.3 3.5-2.6 9.5-.3 6.4 0 7.5 2.2 10.2l2.4 3h68.4l2.4-3c2.3-2.9 2.4-3.4 2.4-22.5 0-21-.3-22.1-5.7-24.9-2.8-1.4-12.2-1.4-14.8.1m286 0c-4 2.2-5.5 5.1-5.5 11 0 10.1 3.4 13.8 13 13.8s13-3.7 13-13.8c0-6-1.5-9-5.7-11.1-2.8-1.4-12.2-1.4-14.8.1m49.7 1.8c-2.9 2.8-3.2 3.8-3.2 9 0 3.2.4 7 1 8.4 1.5 4 6.3 5.9 13.7 5.4 8.9-.6 10.7-2.5 11.1-12.1.3-6.4 0-7.5-2.1-10.2-2.3-2.7-3.1-3-9.9-3.3-7.2-.4-7.5-.3-10.6 2.8M281 485.3c-3.5 1.8-5 5.3-5 12.2 0 4.8-.5 6.6-2.3 8.9-2.1 2.6-3 2.9-10.1 3.4-6.9.4-8 .8-10.7 3.4l-2.9 3v18.9c0 20.7.6 23.5 5.5 25.7 1.7.8 8.8 1.2 20.6 1.2 18.7 0 20.9.4 24.1 4.4 2.2 2.7 2.4 12.5.3 16.5-1.8 3.6-3.2 4.1-12.3 5.1-11.8 1.2-11.6 1-12 24.8-.2 18-.1 20 1.7 22.8 1.9 3.2 5.1 4.4 11.6 4.4 8.5 0 12.5 4.1 12.5 12.9 0 9.2 3.7 13.1 12.3 13.1 9.8 0 13.7 3.7 13.7 12.9 0 2.7.4 6.1 1 7.6 1.2 3.1 6.3 5.5 12.1 5.5 5.2 0 10.3 2.4 11.8 5.6 1.6 3.5 1.4 12-.4 15.3-2.2 4.3-6 5.1-25.1 5.1-11.3 0-18.2.4-19.9 1.2-3.5 1.6-5.5 5.7-5.5 11.3 0 9.7-3.8 13.5-13.6 13.5-8.7 0-12.4 3.9-12.4 13 0 6.1 2.2 10.7 5.6 12 3.5 1.4 36.4 1.3 40.3-.1 4-1.4 6.1-5.4 6.1-11.9 0-9.3 3.7-13 13.1-13 9.2 0 12.9 3.9 12.9 13.7 0 5.4 2 9.5 5.5 11.1 3.6 1.6 165.7 1.7 170.4.1 4-1.4 6.1-5.4 6.1-11.8 0-9.2-3.7-13.1-12.3-13.1-9.9 0-13.7-3.8-13.7-13.5 0-8.6 3.9-12.5 12.4-12.5 9.7 0 13.6-3.7 13.6-12.9 0-12.3-2.1-13.3-27.5-12.9-25.9.4-23.8-1.7-24.5 25.1-.5 22-1 23.8-6.1 25.6-4.2 1.5-35.6 1.4-39.8 0-5.4-1.9-6.1-4.6-6.1-24.8 0-9.9-.4-19.1-1-20.5-.5-1.4-2.3-3.2-3.9-4.1-3.6-1.8-11.9-2-15.6-.3-4.8 2.2-5.5 5.1-5.5 24.3 0 20.2-.8 23.5-6 25.4-4.2 1.4-9.8 1.4-13.9 0-5.9-2.1-6.1-3.4-6.1-38.6 0-31.6 0-31.8-2.3-34.7-2-2.5-3.2-2.9-9.7-3.6-4.1-.4-8.3-1.1-9.3-1.5-2.7-1.1-4.7-5.9-4.7-11.4 0-9.2-3.7-13.1-12.3-13.1-6.3 0-10.5-1.8-12.2-5.1-1.9-3.6-2.2-37.4-.3-41.4 1.6-3.5 5.7-5.5 11.1-5.5 10.1 0 13.7-3.7 13.7-13.7-.1-8.6-3.7-12.3-12.3-12.3-9.8 0-13.7-3.7-13.7-13 0-9.1-3.7-13-12.4-13-5.7 0-10.4-1.7-11.9-4.4-.8-1.4-1.4-9-1.7-22.4l-.5-20.4-3-2.4c-2.4-1.9-4.2-2.4-9-2.4-3.3 0-7.1.6-8.5 1.3m104 0c-4.4 2.2-5 4.9-5 24.7 0 24.3.9 26 14.1 26 8.3 0 11.9-3.9 11.9-12.9 0-9.2 3.7-13.1 12.3-13.1 9.8 0 13.7 3.7 13.7 13s-3.9 13-13.6 13c-8.7 0-12.4 3.9-12.4 13 0 6.1 1.9 10.2 5.5 11.8 4 1.8 37.8 1.6 41.4-.2 4.9-2.6 5.1-4.3 5.1-37.6s-.2-35-5.1-37.6c-3.8-1.9-64.1-2-67.9-.1m104 0c-3.5 1.8-5 5.3-5 12.2 0 4.8.5 6.6 2.4 8.9 2 2.6 3.1 3 8.4 3.4 11.7.8 15.7-2.8 15-14.1-.3-6.3-.7-7.2-3.3-9.3-2.4-1.9-4.2-2.4-9-2.4-3.3 0-7.1.6-8.5 1.3m-339.9 27.8c-2.7 2.7-3.1 3.8-3.1 8.5 0 10.7-3.6 14.4-13.7 14.4-8.6 0-12.3 3.9-12.3 13.1 0 6.4 2.1 10.4 6.1 11.8 4.6 1.6 62.9 1.5 66.4-.1 3.7-1.7 5.5-5.8 5.5-12.5-.1-8.6-3.7-12.3-12.3-12.3-9.8 0-13.7-3.7-13.7-12.9 0-9.7-3.6-13.1-13.9-13.1-5.3 0-6.3.3-9 3.1m574-1.7c-4.5 2.5-5 4.9-5.1 24.4 0 20 .6 22.8 5.5 25 3.3 1.5 10.2 1.5 14.4.1 5.4-1.9 6.1-4.6 6.1-24.8 0-9.9-.4-19.1-1-20.6-1.8-4.8-14-7.3-19.9-4.1"/><path d="M359.5 537.2c-4 2.2-5.5 5.1-5.5 11 0 6.9 1.5 10.5 5.1 12.4 3.2 1.6 11.6 1.9 15.3.4 3.4-1.3 5.6-5.9 5.6-11.9 0-6.2-1.6-9.8-5.1-11.7-3.3-1.7-12.5-1.8-15.4-.2m-130 26c-4 2.2-5.5 5.1-5.5 11 0 3.1.4 6.8 1 8.3 1.8 4.7 11.5 7 18.9 4.4 4.2-1.5 6.1-5.5 6.1-12.6 0-6.1-1.5-9.1-5.7-11.2-2.8-1.4-12.2-1.4-14.8.1m155.9-.2c-3.5 1.4-5.1 5.1-5.5 12.6-.6 9.8-2.3 11.5-12.3 12.2-10.6.7-12.8 2.6-13.4 11.6q-.45 6.75.9 9.3c2.5 4.7 5.3 5.3 24.8 5.3 11.8 0 18.9.4 20.6 1.2 4.9 2.2 5.5 5.1 5.5 24.7 0 11.8.4 18.9 1.2 20.6 2.2 4.9 5.1 5.5 25 5.5 15.7 0 18.7.3 20.8 1.7 4.1 2.8 4.9 4.5 5 10.5 0 3.1.4 6.8 1 8.2 1.5 4 6.3 5.9 13.7 5.4 8.7-.6 10.6-2.5 11.1-11.5.2-3.8.8-7.9 1.5-9.1 1.6-3.4 5.8-5.2 11.7-5.2 9.6 0 13-3.7 13-13.8 0-6-1.5-9-5.7-11.1-1.5-.7-12.2-1.1-32.6-1.1-19.7 0-31.5-.4-33.6-1.1-4-1.4-6.1-5.4-6.1-11.9 0-5.6 1.9-10.4 4.7-11.5 1-.4 5.2-1.1 9.3-1.5 6.5-.7 7.7-1.1 9.7-3.6 1.8-2.3 2.3-4.2 2.3-8.7 0-6.7-1.8-10.8-5.5-12.5-1.7-.8-8.6-1.2-19.9-1.2-10.1 0-18.6-.5-20.5-1.1-4.2-1.5-6.1-5.5-6.1-12.8 0-5.3-.3-6.3-3.1-9-2.8-2.8-3.6-3.1-9.2-3-3.4 0-7.1.4-8.3.9m364.1.2c-4 2.2-5.5 5.1-5.5 11 0 3.1.4 6.8 1 8.3 1.8 4.7 11.5 7 18.9 4.4 4.2-1.5 6.1-5.5 6.1-12.6 0-6.1-1.5-9.1-5.7-11.2-2.8-1.4-12.2-1.4-14.8.1M49 589.9c-16.6 5.4-27.2 16.4-31.5 32.8-1.2 4.7-1.5 14.7-1.5 56 0 33.4.4 52 1.1 55.5 3.7 17.2 18.3 31.5 35.8 34.8 3.2.6 25.4 1 55 1 40.8 0 50.7-.3 55.4-1.5 16.9-4.4 28.8-16.3 33.2-33.2 2.2-8.4 2.2-104.2 0-112.6-4.3-16.7-16.5-28.9-33-33.3-3.9-1.1-16.6-1.4-57-1.3-47 0-52.5.2-57.5 1.8m97 25.4c10.2 2.5 17.6 8.6 22.4 18.7l3.1 6.5v78l-2.9 5.7c-3.5 6.9-9.3 12.7-16.6 16.5l-5.5 2.8h-79l-5.7-2.9c-6.9-3.5-12.8-9.4-16.5-16.6l-2.8-5.5-.3-35.5c-.4-37.5.2-44 4-50.8 4.9-8.5 12.7-14.7 21.2-16.8 7.4-1.8 71.1-1.8 78.6-.1"/><path d="M86 640.9c-7.5 2.4-12.7 7-15.9 14.1-1.8 4-2.1 6.5-2.1 24 0 18.4.1 19.8 2.4 24.5 2.8 6 6.6 9.7 12.6 12.4 4 1.8 6.5 2.1 24.3 2.1 18.9 0 20-.1 24.5-2.4 5.8-3 9.5-6.8 12.1-12.6 1.8-4 2.1-6.5 2.1-24s-.3-20-2.1-24c-2.5-5.5-6.2-9.5-11.4-12.3-3.7-2-5.6-2.2-24-2.4-11-.1-21.1.2-22.5.6m637.1-51.5c-4.5 2.5-5 4.9-5.1 23.7 0 10.5-.5 18.9-1.1 20.9-1.4 3.9-5.8 6-12.3 6-8.9 0-12.6 3.8-12.6 13 0 6.1 2.2 10.7 5.6 12 1.4.6 4.8 1 7.5 1 9.2 0 12.8 3.5 12.9 12.3 0 6.2-1.8 11-4.7 12.2-1 .4-5.1 1.1-9.1 1.5-10 1-11.6 2.6-12 12.3-.3 6.4 0 7.5 2.1 10.1s3.2 3 8.8 3.3c11.7.8 14.9 3.6 14.9 13.3 0 9.5 3.5 13 13 13 11.9 0 13-2.2 13-25.9 0-11.8.4-18.9 1.2-20.6 1.6-3.5 5.7-5.5 11.1-5.5 6.3 0 10.5-1.8 12.2-5.1 2-3.7 2.2-63.2.3-67.4-1.6-3.5-5.7-5.5-11.1-5.5-9.8 0-13.7-3.7-13.7-12.9 0-6.6-1.3-9.7-4.9-11.6-3.6-1.8-12.7-1.9-16-.1m-493.9 26.1c-1.8.8-3.7 2.6-4.2 4-.6 1.6-1 19.9-1 46.6 0 49.4-.1 48.9 6.8 50.9 2.3.7 10.5 1 22 .8l18.4-.3 2.5-3c2.1-2.7 2.4-3.8 2.1-10.2-.4-9.7-2-11.3-12-12.3-4-.4-8.1-1.1-9.1-1.5-2.9-1.2-4.7-6-4.7-12.2.1-8.8 3.7-12.3 12.9-12.3 6.6 0 9.7-1.3 11.6-4.9 1.8-3.6 2-11.9.3-15.6-1.6-3.5-5.7-5.5-11.3-5.5-9.7 0-13.5-3.8-13.5-13.6 0-5.6-1.7-9.2-5.1-11-3.5-1.8-11.4-1.7-15.7.1"/><path d="M281.4 667c-4 1.6-5.6 5.7-5.2 13.1.5 9.2 2.3 11.1 11.1 11.7 7.4.5 12.2-1.4 13.7-5.4.6-1.4 1-5.2 1-8.4 0-5.2-.3-6.2-3.1-8.9-2.8-2.8-3.6-3.1-9.2-3-3.4 0-7.1.4-8.3.9M593 693.3c-3.5 1.8-5 5.3-5 12.2 0 4.8.5 6.6 2.4 8.9 2 2.6 3.1 3 8.4 3.4 11.7.8 15.7-2.8 15-14.1-.3-6.3-.7-7.2-3.3-9.3-2.4-1.9-4.2-2.4-9-2.4-3.3 0-7.1.6-8.5 1.3m51.7.3c-3.4 1.9-4.7 5-4.7 11.5 0 9.2-3.9 12.9-13.7 12.9-8.6 0-12.3 3.9-12.3 13.1 0 9.4 3.5 12.9 13 12.9 9.3 0 13 3.7 13 13 0 6.5 2.1 10.5 6.1 11.9 2.1.7 13.9 1.1 33.6 1.1 33 0 34.7-.3 37.1-5.5 1.8-4 1.5-13.6-.6-16.1-3.2-4-5.4-4.4-23.7-4.4-20.2 0-23.5-.8-25.4-6-.6-2-1.1-10.3-1.1-20.6 0-18.8-.6-21.6-5.1-24-3.6-1.8-12.6-1.7-16.2.2m-103.5 25.9c-3.8 1.7-5.2 4.8-5.2 11.6 0 9.4 3.6 12.9 13 12.9 9.5 0 13-3.5 13-12.9 0-6.2-1.6-9.8-5.1-11.7-3.5-1.8-11.4-1.7-15.7.1m-312.1 25.9c-3.5 1.9-5 5.4-5.1 11.4 0 9.5 3.8 13.2 13.7 13.2 8.6 0 12.3-3.9 12.3-13 0-6.1-1.6-9.7-5.1-11.6-3.5-1.8-12.6-1.8-15.8 0m338.4-.2c-4 2.2-5.5 5.1-5.5 11 0 6.9 1.5 10.5 5.1 12.4 3.2 1.6 11.6 1.9 15.3.4 3.4-1.3 5.6-5.9 5.6-11.9 0-6.2-1.6-9.8-5.1-11.7-3.3-1.7-12.5-1.8-15.4-.2"/></svg>