<svg xmlns="http://www.w3.org/2000/svg" viewBox="0 0 1254 1254" fill="#E3262E"><path d="M357 253.1c-6 1.2-11.8 5.4-15.5 11.4l-3 4.8-.3 57.3c-.2 48.5 0 58.3 1.3 63.9 2.1 9.1 4.8 14 11.6 20.8 6.9 6.9 15.7 11.2 25.6 12.7 4.2.6 65.3 1 159.4 1 130.7 0 153.9.2 161.2 1.5 71.5 12.5 115.7 84.1 94.1 152.6-10.9 34.7-36.4 62.2-68.9 74.4-11.2 4.3-23 6.5-37.5 7.2l-13.4.6 1.8-2.9c9.9-15.3 13.2-19.2 17.1-20.4 11.3-3.4 24.6-12 33.6-21.8 28.6-30.8 27.7-78.6-2-108.3-25.3-25.3-63.6-30-94.5-11.7-9.2 5.4-21.2 17.5-26.6 26.6-4.6 7.8-10 22-10 26.4 0 2.8-.1 2.8-6.7 2.8-3.8 0-33.6.1-66.3.1h-59.5l-2.3-5.8c-16.4-40.3-68.3-52.2-100-22.8-7.8 7.2-13.7 15.8-17.2 25s-4 25.3-1 36.2c7.6 28.1 35 47.9 63.8 45.9 16.2-1 30.7-8 42-20.1 5.4-5.7 12.8-18.2 14.4-24.1.5-2 .7-2 64.4-1.8 35.1.1 64.7.3 65.6.3 1.3.1-.6 3.3-7 12.4l-8.7 12.4-17.5.6c-20.3.7-31.2 2.4-43.6 6.8-42.3 14.9-72.2 48.2-83.2 92.6l-2.6 10.8-.3 133.4c-.4 148.5-.8 140.3 6.3 147.4 7.1 7 4.8 6.8 73.9 6.5l62-.3 9.2-3.1c16.7-5.7 29.2-14.3 39.4-27 9.6-12.2 15.8-26.3 17.9-40.9.6-4.2 1-38 1-83.2v-76.2l53.8-.3c50.7-.4 54.4-.5 66.2-2.7 70.4-12.9 129.2-53.5 168.2-116.1 19.1-30.7 31.1-62.8 37.9-101.5 2.1-11.5 2.3-16.3 2.4-42 0-33-.9-40.9-7.7-67.9-5.8-23.1-14.2-44.8-24.5-63-26.1-46.1-65.2-83.4-110.8-105.7-17.7-8.6-30-13.1-48.9-17.9-31.1-7.9-17.7-7.4-225.1-7.6-106.2-.1-186.9.2-189.5.7m318.2 267c7.7 1.6 18 7.4 23.3 13 9.1 9.7 14 25.5 11.6 37.2-2.7 12.8-11 24.5-22.3 31-4.9 2.9-15.7 5.7-22.3 5.7h-4l-11 15.7c-6 8.7-24.6 35.3-41.2 59.1L579 725.1v140.4l7.8 3.7c20.9 9.8 33.3 33.6 28.8 55.5-4.1 20.5-18.1 36-37.5 41.7-7.1 2.1-21.1 2.1-28.2 0-17.5-5.1-31.2-18.8-36.3-36.3-2.1-7.1-2.1-21.1 0-28.2 4.5-15.2 16.6-28.8 30.3-34l4.6-1.7.5-76.8.5-76.9 42.3-60.3 42.3-60.3-3.2-4.5c-14.7-21.5-6.9-51.4 16.5-62.9 10.1-5 18.5-6.3 27.8-4.4m-263.5 23c7.2 3.5 11.5 8.1 14.3 15.7 4.1 11 1.7 21.6-7 30.3-6.4 6.5-12.3 8.9-21.4 8.9-7.3 0-16.3-3.9-21.3-9.1-10.6-11.3-10.4-29.4.5-40.4 9.6-9.6 22-11.5 34.9-5.4"/><path d="M553.2 894.6c-16.1 8-17.8 30.5-3 41.1 11.4 8.2 26.3 5.2 34.4-6.9 6.4-9.5 5.1-21.2-3.4-29.7-7.7-7.6-18.3-9.3-28-4.5"/></svg>